# xmcd
# 
# Track frame offsets:
#     150
#     30154
#     76036
#     119137
#     141572
#     188662
#     228397
# 
# Disc length: 3623
# 
# Revision: 4
# Processed by: cddbd v1.5.2PL0 Copyright (c) Steve Scherf et al.
# Submitted via: fre:ac v1.0.27
# 
DISCID=540e2507
DTITLE=Sayama and Shi Xinggui - Shaolin Qi Gong
DYEAR=2007
DGENRE=New Age
TTITLE0=Shaolin Qi Gong
TTITLE1=Qi-Aktivierung
TTITLE2=Energie in Bewegung
TTITLE3=Qi-Balance
TTITLE4=Qi-Fluss
TTITLE5=Jing, Qi and Shen
TTITLE6=Dantian - Meer der Energie
EXTD=
EXTT0=
EXTT1=
EXTT2=
EXTT3=
EXTT4=
EXTT5=
EXTT6=
PLAYORDER=
